<mxfile host="app.diagrams.net" modified="2023-04-23T04:52:37.383Z" agent="Mozilla/5.0 (Windows NT 10.0; Win64; x64) AppleWebKit/537.36 (KHTML, like Gecko) Chrome/112.0.0.0 Safari/537.36" etag="bpXwh-ZwEV8zG9fMKRaZ" version="21.2.1" type="github">
  <diagram name="Page-1" id="kUGmlVv1KhsbOFP3ll0R">
    <mxGraphModel dx="3578" dy="3178" grid="1" gridSize="10" guides="1" tooltips="1" connect="1" arrows="1" fold="1" page="1" pageScale="1" pageWidth="850" pageHeight="1100" math="0" shadow="0">
      <root>
        <mxCell id="0" />
        <mxCell id="1" parent="0" />
        <mxCell id="BCT4acggiIJb0DLnrBcZ-18" value="" style="rounded=1;whiteSpace=wrap;html=1;" vertex="1" parent="1">
          <mxGeometry x="-840" y="-175" width="380" height="195" as="geometry" />
        </mxCell>
        <mxCell id="BCT4acggiIJb0DLnrBcZ-17" value="" style="rounded=1;whiteSpace=wrap;html=1;" vertex="1" parent="1">
          <mxGeometry x="-885" y="-415" width="340" height="160" as="geometry" />
        </mxCell>
        <mxCell id="BCT4acggiIJb0DLnrBcZ-16" value="" style="rounded=1;whiteSpace=wrap;html=1;" vertex="1" parent="1">
          <mxGeometry x="-910" y="-645" width="410" height="190" as="geometry" />
        </mxCell>
        <mxCell id="BCT4acggiIJb0DLnrBcZ-15" value="" style="rounded=1;whiteSpace=wrap;html=1;" vertex="1" parent="1">
          <mxGeometry x="-1180" y="-1020" width="340" height="180" as="geometry" />
        </mxCell>
        <mxCell id="BCT4acggiIJb0DLnrBcZ-14" value="" style="rounded=1;whiteSpace=wrap;html=1;" vertex="1" parent="1">
          <mxGeometry x="-1180" y="-1240" width="340" height="180" as="geometry" />
        </mxCell>
        <mxCell id="BjX1OBnDMtsCjzTjb3aX-3" value="" style="image;html=1;image=img/lib/clip_art/networking/Switch_128x128.png" parent="1" vertex="1">
          <mxGeometry x="490" y="-155" width="80" height="80" as="geometry" />
        </mxCell>
        <mxCell id="BjX1OBnDMtsCjzTjb3aX-4" value="" style="image;html=1;image=img/lib/clip_art/networking/Firewall_02_128x128.png" parent="1" vertex="1">
          <mxGeometry x="490" y="-370" width="80" height="80" as="geometry" />
        </mxCell>
        <mxCell id="BjX1OBnDMtsCjzTjb3aX-5" value="" style="image;aspect=fixed;perimeter=ellipsePerimeter;html=1;align=center;shadow=0;dashed=0;spacingTop=3;image=img/lib/active_directory/internet_cloud.svg;" parent="1" vertex="1">
          <mxGeometry x="500" y="-472.05" width="70" height="44.1" as="geometry" />
        </mxCell>
        <mxCell id="BjX1OBnDMtsCjzTjb3aX-6" value="" style="image;aspect=fixed;perimeter=ellipsePerimeter;html=1;align=center;shadow=0;dashed=0;spacingTop=3;image=img/lib/active_directory/web_server.svg;" parent="1" vertex="1">
          <mxGeometry x="520" y="-240" width="40" height="50" as="geometry" />
        </mxCell>
        <mxCell id="BjX1OBnDMtsCjzTjb3aX-8" value="" style="verticalLabelPosition=bottom;sketch=0;aspect=fixed;html=1;verticalAlign=top;strokeColor=none;align=center;outlineConnect=0;shape=mxgraph.citrix.file_server;" parent="1" vertex="1">
          <mxGeometry x="370" y="-93.5" width="71" height="97" as="geometry" />
        </mxCell>
        <mxCell id="BjX1OBnDMtsCjzTjb3aX-9" value="" style="image;aspect=fixed;perimeter=ellipsePerimeter;html=1;align=center;shadow=0;dashed=0;spacingTop=3;image=img/lib/active_directory/database_server.svg;" parent="1" vertex="1">
          <mxGeometry x="630" y="-70" width="41" height="50" as="geometry" />
        </mxCell>
        <mxCell id="BjX1OBnDMtsCjzTjb3aX-10" value="Internet&lt;br&gt;" style="text;html=1;align=center;verticalAlign=middle;resizable=0;points=[];autosize=1;strokeColor=none;fillColor=none;" parent="1" vertex="1">
          <mxGeometry x="570" y="-475.9" width="60" height="30" as="geometry" />
        </mxCell>
        <mxCell id="BjX1OBnDMtsCjzTjb3aX-11" value="Firewall&lt;br&gt;" style="text;html=1;align=center;verticalAlign=middle;resizable=0;points=[];autosize=1;strokeColor=none;fillColor=none;" parent="1" vertex="1">
          <mxGeometry x="570" y="-350" width="60" height="30" as="geometry" />
        </mxCell>
        <mxCell id="BjX1OBnDMtsCjzTjb3aX-12" value="Web Server&lt;br&gt;" style="text;html=1;align=center;verticalAlign=middle;resizable=0;points=[];autosize=1;strokeColor=none;fillColor=none;" parent="1" vertex="1">
          <mxGeometry x="570" y="-230" width="90" height="30" as="geometry" />
        </mxCell>
        <mxCell id="BjX1OBnDMtsCjzTjb3aX-13" value="Switch" style="text;html=1;align=center;verticalAlign=middle;resizable=0;points=[];autosize=1;strokeColor=none;fillColor=none;" parent="1" vertex="1">
          <mxGeometry x="585" y="-130" width="60" height="30" as="geometry" />
        </mxCell>
        <mxCell id="BjX1OBnDMtsCjzTjb3aX-17" value="" style="endArrow=none;html=1;rounded=0;entryX=0.5;entryY=1;entryDx=0;entryDy=0;exitX=0.25;exitY=0;exitDx=0;exitDy=0;" parent="1" source="BjX1OBnDMtsCjzTjb3aX-6" target="BjX1OBnDMtsCjzTjb3aX-4" edge="1">
          <mxGeometry width="50" height="50" relative="1" as="geometry">
            <mxPoint x="250" y="-130" as="sourcePoint" />
            <mxPoint x="300" y="-180" as="targetPoint" />
          </mxGeometry>
        </mxCell>
        <mxCell id="BjX1OBnDMtsCjzTjb3aX-18" value="" style="endArrow=none;html=1;rounded=0;" parent="1" source="BjX1OBnDMtsCjzTjb3aX-4" edge="1">
          <mxGeometry width="50" height="50" relative="1" as="geometry">
            <mxPoint x="480" y="-390" as="sourcePoint" />
            <mxPoint x="530" y="-420" as="targetPoint" />
          </mxGeometry>
        </mxCell>
        <mxCell id="BjX1OBnDMtsCjzTjb3aX-19" value="" style="endArrow=none;html=1;rounded=0;" parent="1" source="BjX1OBnDMtsCjzTjb3aX-3" edge="1">
          <mxGeometry width="50" height="50" relative="1" as="geometry">
            <mxPoint x="480" y="-140" as="sourcePoint" />
            <mxPoint x="530" y="-190" as="targetPoint" />
          </mxGeometry>
        </mxCell>
        <mxCell id="BjX1OBnDMtsCjzTjb3aX-20" value="File Server&lt;br&gt;" style="text;html=1;align=center;verticalAlign=middle;resizable=0;points=[];autosize=1;strokeColor=none;fillColor=none;" parent="1" vertex="1">
          <mxGeometry x="290" y="-76.5" width="80" height="30" as="geometry" />
        </mxCell>
        <mxCell id="BjX1OBnDMtsCjzTjb3aX-21" value="Data Base Server&lt;br&gt;" style="text;html=1;align=center;verticalAlign=middle;resizable=0;points=[];autosize=1;strokeColor=none;fillColor=none;" parent="1" vertex="1">
          <mxGeometry x="671" y="-60" width="120" height="30" as="geometry" />
        </mxCell>
        <mxCell id="BjX1OBnDMtsCjzTjb3aX-22" value="" style="image;html=1;image=img/lib/clip_art/networking/Switch_128x128.png" parent="1" vertex="1">
          <mxGeometry x="310" y="-410" width="80" height="80" as="geometry" />
        </mxCell>
        <mxCell id="BjX1OBnDMtsCjzTjb3aX-23" value="" style="endArrow=none;html=1;rounded=0;entryX=0.995;entryY=0.369;entryDx=0;entryDy=0;exitX=0;exitY=0.5;exitDx=0;exitDy=0;entryPerimeter=0;" parent="1" source="BjX1OBnDMtsCjzTjb3aX-4" target="BjX1OBnDMtsCjzTjb3aX-24" edge="1">
          <mxGeometry width="50" height="50" relative="1" as="geometry">
            <mxPoint x="411" y="-208" as="sourcePoint" />
            <mxPoint x="410" y="-260" as="targetPoint" />
          </mxGeometry>
        </mxCell>
        <mxCell id="BjX1OBnDMtsCjzTjb3aX-24" value="" style="image;html=1;image=img/lib/clip_art/networking/Switch_128x128.png" parent="1" vertex="1">
          <mxGeometry x="320" y="-255" width="80" height="80" as="geometry" />
        </mxCell>
        <mxCell id="BjX1OBnDMtsCjzTjb3aX-25" value="VLAN" style="text;html=1;align=center;verticalAlign=middle;resizable=0;points=[];autosize=1;strokeColor=none;fillColor=none;" parent="1" vertex="1">
          <mxGeometry x="320" y="-320" width="50" height="30" as="geometry" />
        </mxCell>
        <mxCell id="BjX1OBnDMtsCjzTjb3aX-26" value="VLAN" style="text;html=1;align=center;verticalAlign=middle;resizable=0;points=[];autosize=1;strokeColor=none;fillColor=none;" parent="1" vertex="1">
          <mxGeometry x="320" y="-220" width="50" height="30" as="geometry" />
        </mxCell>
        <mxCell id="BjX1OBnDMtsCjzTjb3aX-27" value="" style="endArrow=none;html=1;rounded=0;entryX=1;entryY=0.5;entryDx=0;entryDy=0;" parent="1" source="BjX1OBnDMtsCjzTjb3aX-4" target="BjX1OBnDMtsCjzTjb3aX-22" edge="1">
          <mxGeometry width="50" height="50" relative="1" as="geometry">
            <mxPoint x="500" y="-320" as="sourcePoint" />
            <mxPoint x="400" y="-250" as="targetPoint" />
          </mxGeometry>
        </mxCell>
        <mxCell id="BjX1OBnDMtsCjzTjb3aX-29" value="" style="image;html=1;image=img/lib/clip_art/networking/Ip_Camera_128x128.png" parent="1" vertex="1">
          <mxGeometry x="-720" y="-540" width="80" height="80" as="geometry" />
        </mxCell>
        <mxCell id="BjX1OBnDMtsCjzTjb3aX-30" value="" style="image;html=1;image=img/lib/clip_art/networking/Ip_Camera_128x128.png" parent="1" vertex="1">
          <mxGeometry x="-780" y="-390" width="80" height="80" as="geometry" />
        </mxCell>
        <mxCell id="BjX1OBnDMtsCjzTjb3aX-31" value="" style="fontColor=#0066CC;verticalAlign=top;verticalLabelPosition=bottom;labelPosition=center;align=center;html=1;outlineConnect=0;fillColor=#CCCCCC;strokeColor=#6881B3;gradientColor=none;gradientDirection=north;strokeWidth=2;shape=mxgraph.networks.security_camera;" parent="1" vertex="1">
          <mxGeometry x="100" y="-775" width="100" height="75" as="geometry" />
        </mxCell>
        <mxCell id="BjX1OBnDMtsCjzTjb3aX-32" value="" style="fontColor=#0066CC;verticalAlign=top;verticalLabelPosition=bottom;labelPosition=center;align=center;html=1;outlineConnect=0;fillColor=#CCCCCC;strokeColor=#6881B3;gradientColor=none;gradientDirection=north;strokeWidth=2;shape=mxgraph.networks.security_camera;" parent="1" vertex="1">
          <mxGeometry x="240" y="-850" width="100" height="75" as="geometry" />
        </mxCell>
        <mxCell id="BjX1OBnDMtsCjzTjb3aX-33" value="" style="fontColor=#0066CC;verticalAlign=top;verticalLabelPosition=bottom;labelPosition=center;align=center;html=1;outlineConnect=0;fillColor=#CCCCCC;strokeColor=#6881B3;gradientColor=none;gradientDirection=north;strokeWidth=2;shape=mxgraph.networks.security_camera;" parent="1" vertex="1">
          <mxGeometry x="-50" y="-800" width="100" height="75" as="geometry" />
        </mxCell>
        <mxCell id="BjX1OBnDMtsCjzTjb3aX-35" value="" style="image;html=1;image=img/lib/clip_art/networking/Ip_Camera_128x128.png" parent="1" vertex="1">
          <mxGeometry x="-800" y="-140" width="80" height="80" as="geometry" />
        </mxCell>
        <mxCell id="BjX1OBnDMtsCjzTjb3aX-37" value="" style="endArrow=none;html=1;rounded=0;" parent="1" source="BjX1OBnDMtsCjzTjb3aX-24" target="BjX1OBnDMtsCjzTjb3aX-29" edge="1">
          <mxGeometry width="50" height="50" relative="1" as="geometry">
            <mxPoint x="500" y="-320" as="sourcePoint" />
            <mxPoint x="400" y="-250" as="targetPoint" />
          </mxGeometry>
        </mxCell>
        <mxCell id="BjX1OBnDMtsCjzTjb3aX-38" value="Security Camera" style="text;html=1;align=center;verticalAlign=middle;resizable=0;points=[];autosize=1;strokeColor=none;fillColor=none;" parent="1" vertex="1">
          <mxGeometry x="-70" y="-670" width="110" height="30" as="geometry" />
        </mxCell>
        <mxCell id="BjX1OBnDMtsCjzTjb3aX-39" value="Wired and wireless camera" style="text;html=1;align=center;verticalAlign=middle;resizable=0;points=[];autosize=1;strokeColor=none;fillColor=none;" parent="1" vertex="1">
          <mxGeometry x="10" y="-160" width="170" height="30" as="geometry" />
        </mxCell>
        <mxCell id="BjX1OBnDMtsCjzTjb3aX-40" value="" style="endArrow=none;html=1;rounded=0;entryX=0.75;entryY=1;entryDx=0;entryDy=0;" parent="1" target="BjX1OBnDMtsCjzTjb3aX-30" edge="1">
          <mxGeometry width="50" height="50" relative="1" as="geometry">
            <mxPoint x="330" y="-224" as="sourcePoint" />
            <mxPoint x="210" y="-281" as="targetPoint" />
          </mxGeometry>
        </mxCell>
        <mxCell id="BjX1OBnDMtsCjzTjb3aX-41" value="" style="html=1;fillColor=#CCCCCC;strokeColor=#6881B3;gradientColor=none;gradientDirection=north;strokeWidth=2;shape=mxgraph.networks.comm_link_edge;html=1;labelBackgroundColor=none;endArrow=none;fontFamily=Verdana;fontSize=22;fontColor=#000000;" parent="1" edge="1">
          <mxGeometry width="100" height="100" relative="1" as="geometry">
            <mxPoint x="220" y="-199.99999999999997" as="sourcePoint" />
            <mxPoint x="70" y="-249.99999999999997" as="targetPoint" />
            <Array as="points">
              <mxPoint x="50" y="-287.65" />
            </Array>
          </mxGeometry>
        </mxCell>
        <mxCell id="BjX1OBnDMtsCjzTjb3aX-42" value="" style="endArrow=none;html=1;rounded=0;entryX=0.36;entryY=0.79;entryDx=0;entryDy=0;entryPerimeter=0;" parent="1" source="BjX1OBnDMtsCjzTjb3aX-22" target="BjX1OBnDMtsCjzTjb3aX-33" edge="1">
          <mxGeometry width="50" height="50" relative="1" as="geometry">
            <mxPoint x="500" y="-331" as="sourcePoint" />
            <mxPoint x="400" y="-360" as="targetPoint" />
          </mxGeometry>
        </mxCell>
        <mxCell id="BjX1OBnDMtsCjzTjb3aX-43" value="" style="endArrow=none;html=1;rounded=0;entryX=0.36;entryY=0.79;entryDx=0;entryDy=0;entryPerimeter=0;" parent="1" target="BjX1OBnDMtsCjzTjb3aX-31" edge="1">
          <mxGeometry width="50" height="50" relative="1" as="geometry">
            <mxPoint x="330" y="-380" as="sourcePoint" />
            <mxPoint x="-4" y="-496" as="targetPoint" />
          </mxGeometry>
        </mxCell>
        <mxCell id="BjX1OBnDMtsCjzTjb3aX-44" value="" style="endArrow=none;html=1;rounded=0;entryX=0.36;entryY=0.79;entryDx=0;entryDy=0;entryPerimeter=0;" parent="1" source="BjX1OBnDMtsCjzTjb3aX-47" target="BjX1OBnDMtsCjzTjb3aX-32" edge="1">
          <mxGeometry width="50" height="50" relative="1" as="geometry">
            <mxPoint x="340" y="-370" as="sourcePoint" />
            <mxPoint x="116" y="-491" as="targetPoint" />
          </mxGeometry>
        </mxCell>
        <mxCell id="BjX1OBnDMtsCjzTjb3aX-45" value="" style="endArrow=none;html=1;rounded=0;exitX=0;exitY=0.5;exitDx=0;exitDy=0;" parent="1" source="BjX1OBnDMtsCjzTjb3aX-3" target="BjX1OBnDMtsCjzTjb3aX-8" edge="1">
          <mxGeometry width="50" height="50" relative="1" as="geometry">
            <mxPoint x="500" y="-320" as="sourcePoint" />
            <mxPoint x="410" y="-215" as="targetPoint" />
          </mxGeometry>
        </mxCell>
        <mxCell id="BjX1OBnDMtsCjzTjb3aX-46" value="" style="endArrow=none;html=1;rounded=0;entryX=0;entryY=0.75;entryDx=0;entryDy=0;exitX=1;exitY=0.5;exitDx=0;exitDy=0;" parent="1" source="BjX1OBnDMtsCjzTjb3aX-3" target="BjX1OBnDMtsCjzTjb3aX-9" edge="1">
          <mxGeometry width="50" height="50" relative="1" as="geometry">
            <mxPoint x="510" y="-310" as="sourcePoint" />
            <mxPoint x="420" y="-205" as="targetPoint" />
          </mxGeometry>
        </mxCell>
        <mxCell id="BjX1OBnDMtsCjzTjb3aX-47" value="" style="image;html=1;image=img/lib/clip_art/networking/Wireless_Router_128x128.png" parent="1" vertex="1">
          <mxGeometry x="320" y="-525.9" width="80" height="80" as="geometry" />
        </mxCell>
        <mxCell id="BjX1OBnDMtsCjzTjb3aX-48" value="" style="endArrow=none;html=1;rounded=0;entryX=0.36;entryY=0.79;entryDx=0;entryDy=0;entryPerimeter=0;" parent="1" source="BjX1OBnDMtsCjzTjb3aX-4" edge="1">
          <mxGeometry width="50" height="50" relative="1" as="geometry">
            <mxPoint x="544" y="-376.9" as="sourcePoint" />
            <mxPoint x="420" y="-415.9" as="targetPoint" />
          </mxGeometry>
        </mxCell>
        <mxCell id="BjX1OBnDMtsCjzTjb3aX-49" value="" style="html=1;verticalLabelPosition=bottom;align=center;labelBackgroundColor=#ffffff;verticalAlign=top;strokeWidth=2;strokeColor=#0080F0;shadow=0;dashed=0;shape=mxgraph.ios7.icons.wifi;pointerEvents=1" parent="1" vertex="1">
          <mxGeometry x="250" y="-210" width="40" height="32.75" as="geometry" />
        </mxCell>
        <mxCell id="BCT4acggiIJb0DLnrBcZ-1" value="" style="image;html=1;image=img/lib/clip_art/networking/Ip_Camera_128x128.png" vertex="1" parent="1">
          <mxGeometry x="-720" y="-630" width="80" height="80" as="geometry" />
        </mxCell>
        <mxCell id="BCT4acggiIJb0DLnrBcZ-2" value="" style="image;html=1;image=img/lib/clip_art/networking/Ip_Camera_128x128.png" vertex="1" parent="1">
          <mxGeometry x="-850" y="-540" width="80" height="80" as="geometry" />
        </mxCell>
        <mxCell id="BCT4acggiIJb0DLnrBcZ-3" value="" style="image;html=1;image=img/lib/clip_art/networking/Ip_Camera_128x128.png" vertex="1" parent="1">
          <mxGeometry x="-850" y="-630" width="80" height="80" as="geometry" />
        </mxCell>
        <mxCell id="BCT4acggiIJb0DLnrBcZ-27" style="edgeStyle=orthogonalEdgeStyle;rounded=0;orthogonalLoop=1;jettySize=auto;html=1;" edge="1" parent="1" source="BCT4acggiIJb0DLnrBcZ-4" target="BCT4acggiIJb0DLnrBcZ-21">
          <mxGeometry relative="1" as="geometry" />
        </mxCell>
        <mxCell id="BCT4acggiIJb0DLnrBcZ-4" value="" style="image;html=1;image=img/lib/clip_art/networking/Ip_Camera_128x128.png" vertex="1" parent="1">
          <mxGeometry x="-1170" y="-1000" width="80" height="80" as="geometry" />
        </mxCell>
        <mxCell id="BCT4acggiIJb0DLnrBcZ-25" style="edgeStyle=orthogonalEdgeStyle;rounded=0;orthogonalLoop=1;jettySize=auto;html=1;" edge="1" parent="1" source="BCT4acggiIJb0DLnrBcZ-5" target="BCT4acggiIJb0DLnrBcZ-21">
          <mxGeometry relative="1" as="geometry">
            <mxPoint x="-320" y="-935" as="targetPoint" />
          </mxGeometry>
        </mxCell>
        <mxCell id="BCT4acggiIJb0DLnrBcZ-5" value="" style="image;html=1;image=img/lib/clip_art/networking/Ip_Camera_128x128.png" vertex="1" parent="1">
          <mxGeometry x="-1170" y="-1230" width="80" height="80" as="geometry" />
        </mxCell>
        <mxCell id="BCT4acggiIJb0DLnrBcZ-26" style="edgeStyle=orthogonalEdgeStyle;rounded=0;orthogonalLoop=1;jettySize=auto;html=1;" edge="1" parent="1" source="BCT4acggiIJb0DLnrBcZ-6" target="BCT4acggiIJb0DLnrBcZ-21">
          <mxGeometry relative="1" as="geometry" />
        </mxCell>
        <mxCell id="BCT4acggiIJb0DLnrBcZ-6" value="" style="image;html=1;image=img/lib/clip_art/networking/Ip_Camera_128x128.png" vertex="1" parent="1">
          <mxGeometry x="-950" y="-1170" width="80" height="80" as="geometry" />
        </mxCell>
        <mxCell id="BCT4acggiIJb0DLnrBcZ-22" style="edgeStyle=orthogonalEdgeStyle;rounded=0;orthogonalLoop=1;jettySize=auto;html=1;" edge="1" parent="1" source="BCT4acggiIJb0DLnrBcZ-7" target="BCT4acggiIJb0DLnrBcZ-21">
          <mxGeometry relative="1" as="geometry" />
        </mxCell>
        <mxCell id="BCT4acggiIJb0DLnrBcZ-23" style="edgeStyle=orthogonalEdgeStyle;rounded=0;orthogonalLoop=1;jettySize=auto;html=1;" edge="1" parent="1" source="BCT4acggiIJb0DLnrBcZ-8" target="BCT4acggiIJb0DLnrBcZ-21">
          <mxGeometry relative="1" as="geometry" />
        </mxCell>
        <mxCell id="BCT4acggiIJb0DLnrBcZ-28" style="edgeStyle=orthogonalEdgeStyle;rounded=0;orthogonalLoop=1;jettySize=auto;html=1;" edge="1" parent="1" source="BCT4acggiIJb0DLnrBcZ-9" target="BCT4acggiIJb0DLnrBcZ-21">
          <mxGeometry relative="1" as="geometry" />
        </mxCell>
        <mxCell id="BCT4acggiIJb0DLnrBcZ-9" value="" style="image;html=1;image=img/lib/clip_art/networking/Ip_Camera_128x128.png" vertex="1" parent="1">
          <mxGeometry x="-965" y="-940" width="80" height="80" as="geometry" />
        </mxCell>
        <mxCell id="BCT4acggiIJb0DLnrBcZ-20" value="" style="image;html=1;image=img/lib/clip_art/networking/Ip_Camera_128x128.png" vertex="1" parent="1">
          <mxGeometry x="-650" y="-130" width="80" height="80" as="geometry" />
        </mxCell>
        <mxCell id="BCT4acggiIJb0DLnrBcZ-21" value="" style="html=1;verticalLabelPosition=bottom;verticalAlign=top;outlineConnect=0;shadow=0;dashed=0;shape=mxgraph.rack.hpe_aruba.switches.jl659a_aruba_6300m_48_port_hpe_smart_rate_1_2_5_5gbe_class_6_poe_and_4_port_switch;" vertex="1" parent="1">
          <mxGeometry x="-580" y="-967.5" width="142" height="15" as="geometry" />
        </mxCell>
        <mxCell id="BCT4acggiIJb0DLnrBcZ-29" value="" style="group;movable=1;resizable=1;rotatable=1;deletable=1;editable=1;locked=0;connectable=1;" vertex="1" connectable="0" parent="1">
          <mxGeometry x="-1180" y="-1460" width="340" height="180" as="geometry" />
        </mxCell>
        <mxCell id="BCT4acggiIJb0DLnrBcZ-12" value="" style="rounded=1;whiteSpace=wrap;html=1;movable=1;resizable=1;rotatable=1;deletable=1;editable=1;locked=0;connectable=1;" vertex="1" parent="BCT4acggiIJb0DLnrBcZ-29">
          <mxGeometry width="340" height="180" as="geometry" />
        </mxCell>
        <mxCell id="BCT4acggiIJb0DLnrBcZ-7" value="" style="image;html=1;image=img/lib/clip_art/networking/Ip_Camera_128x128.png" vertex="1" parent="BCT4acggiIJb0DLnrBcZ-29">
          <mxGeometry x="10" y="10" width="80" height="80" as="geometry" />
        </mxCell>
        <mxCell id="BCT4acggiIJb0DLnrBcZ-8" value="" style="image;html=1;image=img/lib/clip_art/networking/Ip_Camera_128x128.png" vertex="1" parent="BCT4acggiIJb0DLnrBcZ-29">
          <mxGeometry x="240" y="70" width="80" height="80" as="geometry" />
        </mxCell>
        <mxCell id="BCT4acggiIJb0DLnrBcZ-30" value="3rd Floor" style="text;html=1;strokeColor=none;fillColor=none;align=center;verticalAlign=middle;whiteSpace=wrap;rounded=0;movable=0;resizable=0;rotatable=0;deletable=0;editable=0;locked=1;connectable=0;" vertex="1" parent="1">
          <mxGeometry x="-1040" y="-1385" width="60" height="30" as="geometry" />
        </mxCell>
      </root>
    </mxGraphModel>
  </diagram>
</mxfile>
